<mxfile host="app.diagrams.net" agent="Mozilla/5.0 (Windows NT 10.0; Win64; x64) AppleWebKit/537.36 (KHTML, like Gecko) Chrome/138.0.0.0 Safari/537.36" version="27.2.0">
  <diagram name="Page-1" id="7HZCUNNOl2DOCeJreniK">
    <mxGraphModel dx="1744" dy="878" grid="1" gridSize="10" guides="1" tooltips="1" connect="1" arrows="1" fold="1" page="1" pageScale="1" pageWidth="850" pageHeight="1100" math="0" shadow="0">
      <root>
        <mxCell id="0" />
        <mxCell id="1" parent="0" />
        <mxCell id="mT3sd_ehjV2Jp-XYkTaU-1" value="Activity tamba data pasien" style="swimlane;childLayout=stackLayout;resizeParent=1;resizeParentMax=0;startSize=20;html=1;" vertex="1" parent="1">
          <mxGeometry x="370" y="240" width="610" height="680" as="geometry" />
        </mxCell>
        <mxCell id="mT3sd_ehjV2Jp-XYkTaU-2" value="Operator" style="swimlane;startSize=20;html=1;" vertex="1" parent="mT3sd_ehjV2Jp-XYkTaU-1">
          <mxGeometry y="20" width="280" height="660" as="geometry" />
        </mxCell>
        <mxCell id="mT3sd_ehjV2Jp-XYkTaU-3" value="" style="ellipse;html=1;shape=startState;fillColor=#000000;strokeColor=#ff0000;" vertex="1" parent="mT3sd_ehjV2Jp-XYkTaU-2">
          <mxGeometry x="128.99999999999955" y="40" width="30" height="30" as="geometry" />
        </mxCell>
        <mxCell id="mT3sd_ehjV2Jp-XYkTaU-4" value="" style="edgeStyle=orthogonalEdgeStyle;html=1;verticalAlign=bottom;endArrow=open;endSize=8;strokeColor=#ff0000;rounded=0;" edge="1" parent="mT3sd_ehjV2Jp-XYkTaU-2">
          <mxGeometry relative="1" as="geometry">
            <mxPoint x="143.99999999999955" y="100" as="targetPoint" />
            <mxPoint x="144" y="70" as="sourcePoint" />
          </mxGeometry>
        </mxCell>
        <mxCell id="mT3sd_ehjV2Jp-XYkTaU-5" value="kil tombol tambah data pasien" style="rounded=1;whiteSpace=wrap;html=1;arcSize=40;fontColor=#000000;fillColor=#ffffc0;strokeColor=#ff0000;" vertex="1" parent="mT3sd_ehjV2Jp-XYkTaU-2">
          <mxGeometry x="83.99999999999955" y="100" width="120" height="40" as="geometry" />
        </mxCell>
        <mxCell id="mT3sd_ehjV2Jp-XYkTaU-35" value="form dibuka" style="rounded=1;whiteSpace=wrap;html=1;arcSize=40;fontColor=#000000;fillColor=#ffffc0;strokeColor=#ff0000;" vertex="1" parent="mT3sd_ehjV2Jp-XYkTaU-2">
          <mxGeometry x="84" y="180" width="120" height="40" as="geometry" />
        </mxCell>
        <mxCell id="mT3sd_ehjV2Jp-XYkTaU-36" value="" style="edgeStyle=orthogonalEdgeStyle;html=1;verticalAlign=bottom;endArrow=open;endSize=8;strokeColor=#ff0000;rounded=0;entryX=0.5;entryY=0;entryDx=0;entryDy=0;" edge="1" source="mT3sd_ehjV2Jp-XYkTaU-35" parent="mT3sd_ehjV2Jp-XYkTaU-2" target="mT3sd_ehjV2Jp-XYkTaU-37">
          <mxGeometry relative="1" as="geometry">
            <mxPoint x="144" y="270" as="targetPoint" />
          </mxGeometry>
        </mxCell>
        <mxCell id="mT3sd_ehjV2Jp-XYkTaU-40" style="edgeStyle=orthogonalEdgeStyle;rounded=0;orthogonalLoop=1;jettySize=auto;html=1;exitX=0.5;exitY=1;exitDx=0;exitDy=0;entryX=0.5;entryY=0;entryDx=0;entryDy=0;" edge="1" parent="mT3sd_ehjV2Jp-XYkTaU-2" source="mT3sd_ehjV2Jp-XYkTaU-37" target="mT3sd_ehjV2Jp-XYkTaU-38">
          <mxGeometry relative="1" as="geometry" />
        </mxCell>
        <mxCell id="mT3sd_ehjV2Jp-XYkTaU-37" value="isi form" style="rounded=1;whiteSpace=wrap;html=1;arcSize=40;fontColor=#000000;fillColor=#ffffc0;strokeColor=#ff0000;" vertex="1" parent="mT3sd_ehjV2Jp-XYkTaU-2">
          <mxGeometry x="84" y="260" width="120" height="40" as="geometry" />
        </mxCell>
        <mxCell id="mT3sd_ehjV2Jp-XYkTaU-38" value="klik simpan" style="rounded=1;whiteSpace=wrap;html=1;arcSize=40;fontColor=#000000;fillColor=#ffffc0;strokeColor=#ff0000;" vertex="1" parent="mT3sd_ehjV2Jp-XYkTaU-2">
          <mxGeometry x="84" y="340" width="120" height="40" as="geometry" />
        </mxCell>
        <mxCell id="mT3sd_ehjV2Jp-XYkTaU-28" value="" style="ellipse;html=1;shape=endState;fillColor=#000000;strokeColor=#ff0000;" vertex="1" parent="mT3sd_ehjV2Jp-XYkTaU-2">
          <mxGeometry x="128.99999999999955" y="590" width="30" height="30" as="geometry" />
        </mxCell>
        <mxCell id="mT3sd_ehjV2Jp-XYkTaU-62" value="tampilkan notifikasi" style="rounded=1;whiteSpace=wrap;html=1;arcSize=40;fontColor=#000000;fillColor=#ffffc0;strokeColor=#ff0000;" vertex="1" parent="mT3sd_ehjV2Jp-XYkTaU-2">
          <mxGeometry x="84" y="515" width="120" height="40" as="geometry" />
        </mxCell>
        <mxCell id="mT3sd_ehjV2Jp-XYkTaU-63" value="" style="edgeStyle=orthogonalEdgeStyle;html=1;verticalAlign=bottom;endArrow=open;endSize=8;strokeColor=#ff0000;rounded=0;" edge="1" source="mT3sd_ehjV2Jp-XYkTaU-62" parent="mT3sd_ehjV2Jp-XYkTaU-2">
          <mxGeometry relative="1" as="geometry">
            <mxPoint x="144" y="590" as="targetPoint" />
          </mxGeometry>
        </mxCell>
        <mxCell id="mT3sd_ehjV2Jp-XYkTaU-34" style="edgeStyle=orthogonalEdgeStyle;rounded=0;orthogonalLoop=1;jettySize=auto;html=1;exitX=1;exitY=0.5;exitDx=0;exitDy=0;entryX=0;entryY=0.5;entryDx=0;entryDy=0;" edge="1" parent="mT3sd_ehjV2Jp-XYkTaU-1" source="mT3sd_ehjV2Jp-XYkTaU-5" target="mT3sd_ehjV2Jp-XYkTaU-32">
          <mxGeometry relative="1" as="geometry" />
        </mxCell>
        <mxCell id="mT3sd_ehjV2Jp-XYkTaU-39" value="" style="edgeStyle=orthogonalEdgeStyle;html=1;verticalAlign=bottom;endArrow=open;endSize=8;strokeColor=#ff0000;rounded=0;entryX=0;entryY=0.5;entryDx=0;entryDy=0;" edge="1" source="mT3sd_ehjV2Jp-XYkTaU-38" parent="mT3sd_ehjV2Jp-XYkTaU-1" target="mT3sd_ehjV2Jp-XYkTaU-42">
          <mxGeometry relative="1" as="geometry">
            <mxPoint x="235" y="460" as="targetPoint" />
          </mxGeometry>
        </mxCell>
        <mxCell id="mT3sd_ehjV2Jp-XYkTaU-20" value="SIstem" style="swimlane;startSize=20;html=1;" vertex="1" parent="mT3sd_ehjV2Jp-XYkTaU-1">
          <mxGeometry x="280" y="20" width="330" height="660" as="geometry" />
        </mxCell>
        <mxCell id="mT3sd_ehjV2Jp-XYkTaU-32" value="kirim form tambah data&amp;nbsp;" style="rounded=1;whiteSpace=wrap;html=1;arcSize=40;fontColor=#000000;fillColor=#ffffc0;strokeColor=#ff0000;" vertex="1" parent="mT3sd_ehjV2Jp-XYkTaU-20">
          <mxGeometry x="120" y="100" width="120" height="40" as="geometry" />
        </mxCell>
        <mxCell id="mT3sd_ehjV2Jp-XYkTaU-47" style="edgeStyle=orthogonalEdgeStyle;rounded=0;orthogonalLoop=1;jettySize=auto;html=1;exitX=0.5;exitY=1;exitDx=0;exitDy=0;entryX=0.5;entryY=0;entryDx=0;entryDy=0;" edge="1" parent="mT3sd_ehjV2Jp-XYkTaU-20" source="mT3sd_ehjV2Jp-XYkTaU-42" target="mT3sd_ehjV2Jp-XYkTaU-44">
          <mxGeometry relative="1" as="geometry" />
        </mxCell>
        <mxCell id="mT3sd_ehjV2Jp-XYkTaU-42" value="validasi data" style="rounded=1;whiteSpace=wrap;html=1;arcSize=40;fontColor=#000000;fillColor=#ffffc0;strokeColor=#ff0000;" vertex="1" parent="mT3sd_ehjV2Jp-XYkTaU-20">
          <mxGeometry x="100" y="240" width="120" height="40" as="geometry" />
        </mxCell>
        <mxCell id="mT3sd_ehjV2Jp-XYkTaU-53" style="edgeStyle=orthogonalEdgeStyle;rounded=0;orthogonalLoop=1;jettySize=auto;html=1;exitX=0;exitY=0.5;exitDx=0;exitDy=0;entryX=0.5;entryY=0;entryDx=0;entryDy=0;" edge="1" parent="mT3sd_ehjV2Jp-XYkTaU-20" source="mT3sd_ehjV2Jp-XYkTaU-44" target="mT3sd_ehjV2Jp-XYkTaU-48">
          <mxGeometry relative="1" as="geometry" />
        </mxCell>
        <mxCell id="mT3sd_ehjV2Jp-XYkTaU-57" style="edgeStyle=orthogonalEdgeStyle;rounded=0;orthogonalLoop=1;jettySize=auto;html=1;exitX=1;exitY=0.5;exitDx=0;exitDy=0;entryX=0.5;entryY=0;entryDx=0;entryDy=0;" edge="1" parent="mT3sd_ehjV2Jp-XYkTaU-20" source="mT3sd_ehjV2Jp-XYkTaU-44" target="mT3sd_ehjV2Jp-XYkTaU-50">
          <mxGeometry relative="1" as="geometry" />
        </mxCell>
        <mxCell id="mT3sd_ehjV2Jp-XYkTaU-44" value="valid" style="rhombus;whiteSpace=wrap;html=1;fontColor=#000000;fillColor=#ffffc0;strokeColor=#ff0000;" vertex="1" parent="mT3sd_ehjV2Jp-XYkTaU-20">
          <mxGeometry x="120" y="330" width="80" height="40" as="geometry" />
        </mxCell>
        <mxCell id="mT3sd_ehjV2Jp-XYkTaU-33" value="" style="edgeStyle=elbowEdgeStyle;html=1;verticalAlign=bottom;endArrow=open;endSize=8;strokeColor=#ff0000;rounded=0;entryX=1;entryY=0.5;entryDx=0;entryDy=0;" edge="1" parent="mT3sd_ehjV2Jp-XYkTaU-20">
          <mxGeometry relative="1" as="geometry">
            <mxPoint x="-110" y="200" as="targetPoint" />
            <mxPoint x="175" y="140" as="sourcePoint" />
            <Array as="points">
              <mxPoint x="175" y="150" />
            </Array>
          </mxGeometry>
        </mxCell>
        <mxCell id="mT3sd_ehjV2Jp-XYkTaU-50" value="kirim pesan eror ke user&amp;nbsp;" style="rounded=1;whiteSpace=wrap;html=1;arcSize=40;fontColor=#000000;fillColor=#ffffc0;strokeColor=#ff0000;" vertex="1" parent="mT3sd_ehjV2Jp-XYkTaU-20">
          <mxGeometry x="190" y="400" width="120" height="40" as="geometry" />
        </mxCell>
        <mxCell id="mT3sd_ehjV2Jp-XYkTaU-51" value="" style="edgeStyle=orthogonalEdgeStyle;html=1;verticalAlign=bottom;endArrow=open;endSize=8;strokeColor=#ff0000;rounded=0;entryX=1;entryY=0.5;entryDx=0;entryDy=0;" edge="1" source="mT3sd_ehjV2Jp-XYkTaU-50" parent="mT3sd_ehjV2Jp-XYkTaU-20" target="mT3sd_ehjV2Jp-XYkTaU-58">
          <mxGeometry relative="1" as="geometry">
            <mxPoint x="250" y="500" as="targetPoint" />
          </mxGeometry>
        </mxCell>
        <mxCell id="mT3sd_ehjV2Jp-XYkTaU-54" style="edgeStyle=orthogonalEdgeStyle;rounded=0;orthogonalLoop=1;jettySize=auto;html=1;exitX=0.5;exitY=1;exitDx=0;exitDy=0;entryX=0.5;entryY=0;entryDx=0;entryDy=0;" edge="1" parent="mT3sd_ehjV2Jp-XYkTaU-20" source="mT3sd_ehjV2Jp-XYkTaU-48" target="mT3sd_ehjV2Jp-XYkTaU-52">
          <mxGeometry relative="1" as="geometry" />
        </mxCell>
        <mxCell id="mT3sd_ehjV2Jp-XYkTaU-48" value="simpan data" style="rounded=1;whiteSpace=wrap;html=1;arcSize=40;fontColor=#000000;fillColor=#ffffc0;strokeColor=#ff0000;" vertex="1" parent="mT3sd_ehjV2Jp-XYkTaU-20">
          <mxGeometry x="10" y="400" width="120" height="40" as="geometry" />
        </mxCell>
        <mxCell id="mT3sd_ehjV2Jp-XYkTaU-66" style="edgeStyle=orthogonalEdgeStyle;rounded=0;orthogonalLoop=1;jettySize=auto;html=1;exitX=1;exitY=0.5;exitDx=0;exitDy=0;entryX=0.5;entryY=0;entryDx=0;entryDy=0;" edge="1" parent="mT3sd_ehjV2Jp-XYkTaU-20" source="mT3sd_ehjV2Jp-XYkTaU-52" target="mT3sd_ehjV2Jp-XYkTaU-58">
          <mxGeometry relative="1" as="geometry" />
        </mxCell>
        <mxCell id="mT3sd_ehjV2Jp-XYkTaU-52" value="kirim pesan sukses ke user" style="rounded=1;whiteSpace=wrap;html=1;arcSize=40;fontColor=#000000;fillColor=#ffffc0;strokeColor=#ff0000;" vertex="1" parent="mT3sd_ehjV2Jp-XYkTaU-20">
          <mxGeometry x="10" y="470" width="120" height="40" as="geometry" />
        </mxCell>
        <mxCell id="mT3sd_ehjV2Jp-XYkTaU-58" value="" style="rhombus;whiteSpace=wrap;html=1;fontColor=#000000;fillColor=#ffffc0;strokeColor=#ff0000;" vertex="1" parent="mT3sd_ehjV2Jp-XYkTaU-20">
          <mxGeometry x="160" y="520" width="40" height="30" as="geometry" />
        </mxCell>
        <mxCell id="mT3sd_ehjV2Jp-XYkTaU-67" style="edgeStyle=orthogonalEdgeStyle;rounded=0;orthogonalLoop=1;jettySize=auto;html=1;exitX=0;exitY=0.5;exitDx=0;exitDy=0;entryX=1;entryY=0.5;entryDx=0;entryDy=0;" edge="1" parent="mT3sd_ehjV2Jp-XYkTaU-1" source="mT3sd_ehjV2Jp-XYkTaU-58" target="mT3sd_ehjV2Jp-XYkTaU-62">
          <mxGeometry relative="1" as="geometry" />
        </mxCell>
      </root>
    </mxGraphModel>
  </diagram>
</mxfile>
